<svg id="gum" xmlns="http://www.w3.org/2000/svg" viewBox="0 0 614.13 289.75"><title>gum</title><path d="M61.5,257l42,165s535-85,539-96c0,0-33-153-41-153C601.5,173,65.5,250,61.5,257Z" transform="translate(-29.93 -171.49)" fill="#d5edfa" stroke="#e10e49" stroke-miterlimit="10" stroke-width="3"/><path d="M31.5,287l30-30,42,165-26,36S37.5,338,31.5,287Z" transform="translate(-29.93 -171.49)" fill="#d5edfa" stroke="#e10e49" stroke-miterlimit="10" stroke-width="3"/><path d="M608.5,358s-513,112-531,100l26-36s540-88,539-96S626.5,354,608.5,358Z" transform="translate(-29.93 -171.49)" fill="#d5edfa" stroke="#e10e49" stroke-miterlimit="10" stroke-width="3"/><line x1="7.57" y1="150.5" x2="31.57" y2="85.5" fill="none" stroke="#e10e49" stroke-miterlimit="10" stroke-width="3"/><line x1="1.57" y1="115.5" x2="19.57" y2="123.5" fill="none" stroke="#e10e49" stroke-miterlimit="10" stroke-width="3"/><line x1="28.57" y1="229.5" x2="73.57" y2="250.5" fill="none" stroke="#e10e49" stroke-miterlimit="10" stroke-width="3"/><line x1="47.57" y1="286.5" x2="50.57" y2="237.5" fill="none" stroke="#e10e49" stroke-miterlimit="10" stroke-width="3"/><ellipse cx="445.07" cy="109.5" rx="63.5" ry="67" fill="#e10e49" stroke="#052951" stroke-miterlimit="10" stroke-width="3"/><ellipse cx="368.57" cy="59" rx="16" ry="13.5" fill="#e10e49" stroke="#052951" stroke-miterlimit="10" stroke-width="3"/><ellipse cx="398.57" cy="151.5" rx="25" ry="19" fill="#e10e49" stroke="#052951" stroke-miterlimit="10" stroke-width="3"/><path d="M424,279.49s12-64,67-51c0,0-1,21-3,22C488,250.49,459,225.49,424,279.49Z" transform="translate(-29.93 -171.49)" fill="#d5edfa"/><path d="M387.5,232s2-13,14-10l-1,5S396.5,224,387.5,232Z" transform="translate(-29.93 -171.49)" fill="#d5edfa"/><path d="M413,324.49s-2-16,23-13c0,0,2,6,0,7C436,318.49,421,308.49,413,324.49Z" transform="translate(-29.93 -171.49)" fill="#d5edfa"/><path d="M164.5,345l-23-41s-5-25,14-7l8,18,9-4-6-18s-4-20,9-3l16,42s2,14-11,4l-6-13-7,4,7,14S175.5,355,164.5,345Z" transform="translate(-29.93 -171.49)" fill="#fcd900" stroke="#052951" stroke-miterlimit="10" stroke-width="3"/><path d="M194.5,297s22,42,9-2c0,0-9-25,7-3,0,0,24,61-15,25,0,0-10-19-7-28C188.5,289,193.5,280,194.5,297Z" transform="translate(-29.93 -171.49)" fill="#fcd900" stroke="#052951" stroke-miterlimit="10" stroke-width="3"/><path d="M209.5,263s8,61,30,42-15-36-20-29C219.5,276,221.5,258,209.5,263Z" transform="translate(-29.93 -171.49)" fill="#fcd900" stroke="#052951" stroke-miterlimit="10" stroke-width="3"/><ellipse cx="201.07" cy="121.5" rx="6.5" ry="6" fill="#fcd900" stroke="#052951" stroke-miterlimit="10" stroke-width="3"/><path d="M238.5,250s-3,49,25,38c0,0,13-25-14-27C249.5,261,247.5,238,238.5,250Z" transform="translate(-29.93 -171.49)" fill="#fcd900" stroke="#052951" stroke-miterlimit="10" stroke-width="3"/><ellipse cx="224.07" cy="105.5" rx="5.5" ry="6" fill="#fcd900" stroke="#052951" stroke-miterlimit="10" stroke-width="3"/><path d="M282.5,259s-29-12-1-11c0,0,22,14,16,32,0,0-5,2-7-4,0,0-13,12-17,0C273.5,276,272.5,265,282.5,259Z" transform="translate(-29.93 -171.49)" fill="#fcd900" stroke="#052951" stroke-miterlimit="10" stroke-width="3"/><circle cx="254.57" cy="98.5" r="4" fill="#fcd900" stroke="#052951" stroke-miterlimit="10" stroke-width="3"/><path d="M243.5,335s22,42,9-2c0,0-9-25,7-3,0,0,24,61-15,25,0,0-10-19-7-28C237.5,327,242.5,318,243.5,335Z" transform="translate(-29.93 -171.49)" fill="#fcd900" stroke="#052951" stroke-miterlimit="10" stroke-width="3"/><path d="M258.5,301s8,61,30,42-15-36-20-29C268.5,314,270.5,296,258.5,301Z" transform="translate(-29.93 -171.49)" fill="#fcd900" stroke="#052951" stroke-miterlimit="10" stroke-width="3"/><ellipse cx="250.07" cy="159.5" rx="6.5" ry="6" fill="#fcd900" stroke="#052951" stroke-miterlimit="10" stroke-width="3"/><path d="M287.5,288s-3,49,25,38c0,0,13-25-14-27C298.5,299,296.5,276,287.5,288Z" transform="translate(-29.93 -171.49)" fill="#fcd900" stroke="#052951" stroke-miterlimit="10" stroke-width="3"/><ellipse cx="273.07" cy="143.5" rx="5.5" ry="6" fill="#fcd900" stroke="#052951" stroke-miterlimit="10" stroke-width="3"/><path d="M331.5,297s-29-12-1-11c0,0,22,14,16,32,0,0-5,2-7-4,0,0-13,12-17,0C322.5,314,321.5,303,331.5,297Z" transform="translate(-29.93 -171.49)" fill="#fcd900" stroke="#052951" stroke-miterlimit="10" stroke-width="3"/><circle cx="303.57" cy="136.5" r="4" fill="#fcd900" stroke="#052951" stroke-miterlimit="10" stroke-width="3"/><path d="M205.5,342s15,44,19,43c0,0,39-21,2-33C226.5,352,228.5,324,205.5,342Z" transform="translate(-29.93 -171.49)" fill="#fcd900" stroke="#052951" stroke-miterlimit="10" stroke-width="3"/><ellipse cx="186.57" cy="176.5" rx="4" ry="3" fill="#fcd900" stroke="#052951" stroke-miterlimit="10" stroke-width="3"/><ellipse cx="199.57" cy="196" rx="7" ry="6.5" fill="#fcd900" stroke="#052951" stroke-miterlimit="10" stroke-width="3"/></svg>
