<svg id="ice" xmlns="http://www.w3.org/2000/svg" viewBox="0 0 143.12 443.07"><title>ice</title><path d="M325,541.49v-277s-1-14,14-18c0,0,20,1,14,22l1,274s-2,15-15,15C339,557.49,326,559.49,325,541.49Z" transform="translate(-266.88 -114.49)" fill="#d5edfa"/><path d="M269,219.49l140,1v181s12,31-52,27H294s-23,2-26-31S269,219.49,269,219.49Z" transform="translate(-266.88 -114.49)" fill="#fcd900" opacity="0.77"/><path d="M346,114.49s-7,15,6,22c0,0-5,16,14,24,0,0,4,18,21,17,0,0,5,13,23,8l-.35,38.69-140.94-.29,1.29-91.4a24.34,24.34,0,0,1,20-18Z" transform="translate(-266.88 -114.49)" fill="#e10e49"/></svg>
