<svg id="polse" xmlns="http://www.w3.org/2000/svg" viewBox="0 0 201.28 461.07"><title>polse</title><path d="M286,206.49s-11-60,42-67c0,0,38-2,60,30,0,0,22,30,28,69,0,0,11,45,9,93,0,0-8,86-23,104,0,0-30,76-63,99,0,0-22,26-64,15,0,0-46-9-30-66,0,0,6.5-29.5,26.5-51.5,0,0,21-30,27-62,0,0,12-35,7-77,0,0-9-51-13-58C292.5,235,284.5,209,286,206.49Z" transform="translate(-223.96 -112.27)" fill="#e10e49"/><path d="M295,132.49s-5-28,19-10c0,0,20-34,21,22s-37,20-37,20S255,130.49,295,132.49Z" transform="translate(-223.96 -112.27)" fill="#e10e49"/><path d="M239,543.49s-11,29,14,16c0,0,7,40,27-16s-33-29-33-29S201,541.49,239,543.49Z" transform="translate(-223.96 -112.27)" fill="#e10e49"/></svg>
