<?xml version="1.0" encoding="utf-8"?>
<!-- Generator: Adobe Illustrator 22.0.1, SVG Export Plug-In . SVG Version: 6.00 Build 0)  -->
<svg version="1.1" id="Layer_1" xmlns="http://www.w3.org/2000/svg" xmlns:xlink="http://www.w3.org/1999/xlink" x="0px" y="0px"
	 viewBox="0 0 140 140" style="enable-background:new 0 0 140 140;" xml:space="preserve">
<style type="text/css">
	.st0{fill:#FFFFFF;}
</style>
<title>Combined Shape</title>
<path class="st0" d="M101.4,0H38.6C17.3,0,0,17.3,0,38.6v62.7C0,122.7,17.3,140,38.6,140h62.7c21.3,0,38.6-17.3,38.6-38.6V38.6
	C140,17.3,122.7,0,101.4,0z M127.6,101.4c0,14.5-11.8,26.2-26.2,26.2H38.6c-14.5,0-26.2-11.8-26.2-26.2V38.6
	c0-14.5,11.8-26.2,26.2-26.2h62.7c14.5,0,26.2,11.8,26.2,26.2L127.6,101.4L127.6,101.4z M70,33.9c-19.9,0-36.1,16.2-36.1,36.1
	c0,19.9,16.2,36.1,36.1,36.1s36.1-16.2,36.1-36.1C106.1,50.1,89.9,33.9,70,33.9z M70,93.7C57,93.7,46.3,83,46.3,70S57,46.3,70,46.3
	C83,46.3,93.7,57,93.7,70S83,93.7,70,93.7z M107.6,23.4c-2.4,0-4.7,1-6.4,2.7c-1.7,1.7-2.7,4-2.7,6.4c0,2.4,1,4.7,2.7,6.4
	c1.7,1.7,4,2.7,6.4,2.7c2.4,0,4.7-1,6.4-2.7c1.7-1.7,2.7-4,2.7-6.4c0-2.4-1-4.7-2.7-6.4C112.3,24.4,110,23.4,107.6,23.4z"/>
</svg>
