<svg xmlns="http://www.w3.org/2000/svg" width="1394.64" height="92.4" viewBox="0 0 1394.64 92.4"><defs><style>.a{fill:#fff;}.b{fill:#f7f7f7;}</style></defs><title>Skyer</title><path class="a" d="M212.31,48.77s-35.14,18.06-47-9.3c-2.41-19,19.84-6,22.67-5.47s-9.07-19.7,21-8.21c-2.83-34.47,40.8-24.62,45.91-7.11C260,8.31,285.42,2.81,287.12,17c15.6-10.23,25.94-4.32,32.87,12,41.94,0,32.87,37.76-20.4,21.34-21.54,30.64-54.5,4.12-51,1.64C234.42,64.64,215.15,62.45,212.31,48.77Z" transform="translate(-165.09 -2.73)"/><path class="a" d="M754.16,79.46s-21,32.46-86.78,3.92c-29.9,21.17-72.77,3.65-65.8-.56-106.8,19.59-83-40.29-10.49-12.87,10.49-15.11,26.7-6.71,26.7-6.71-6.92-20.71,48.82-34.14,73.43-10.07,23.84-12.87,37.19,1.68,41,8.39,24.55-16.87,28.61-9.51,37.19,6.16C831.4,67.71,807.56,95.13,754.16,79.46Z" transform="translate(-165.09 -2.73)"/><path class="a" d="M1141.1,49.13c-40.05-1.68-49.64-16.48,2.86-16.23,11.07-8.1,22-12.93,32.42-6.71,35.72-18,62.78-19.25,76.29,5.6,16.65-10,27.59-6.78,35.28,3.92,42.27,6.16,48.63,15.67-4.77,13.43-22.39,5.79-47.35,6.81-75.33,2.24C1185,56.43,1162.9,54.3,1141.1,49.13Z" transform="translate(-165.09 -2.73)"/><path class="b" d="M1321.33,82.71c-52.45,0-48.63-14.55,0-12.31-3.81-9.44,6.61-12.2,28.61-9.51-19.92-46.22,77.87-47,93.45-11.75,5.72-15.67,61-24.4,62.94,0,69.61,5,75.33,31.9-7.63,18.47-15,10.89-33.54,14.2-57.22,6.71-18.63,6.65-44.77,9-81.05,5.6C1346.86,84.64,1333.77,86,1321.33,82.71Z" transform="translate(-165.09 -2.73)"/></svg>
