<?xml version="1.0" encoding="utf-8"?>
<!-- Generator: Adobe Illustrator 22.0.1, SVG Export Plug-In . SVG Version: 6.00 Build 0)  -->
<svg version="1.1" id="Layer_1" xmlns="http://www.w3.org/2000/svg" xmlns:xlink="http://www.w3.org/1999/xlink" x="0px" y="0px"
	 viewBox="0 0 114 140" style="enable-background:new 0 0 114 140;" xml:space="preserve">
<style type="text/css">
	.st0{fill:#FFFFFF;}
</style>
<title>Combined Shape</title>
<path class="st0" d="M112,71.3c-1.4-6.1-6.4-10.5-12.3-11.2c-14.1-1.6-28.4-1.6-42.7-1.6c-14.2,0-28.6,0-42.7,1.6
	C8.4,60.8,3.4,65.3,2,71.3C0,80,0,89.4,0,98.3s0,18.3,2,26.9c1.4,6.1,6.4,10.5,12.3,11.2C28.4,138,42.7,138,57,138
	c14.2,0,28.6,0,42.7-1.6c6-0.7,10.9-5.1,12.3-11.2c2-8.6,2-18.1,2-26.9C114,89.4,114,80,112,71.3z M32.5,78h-8.2v43.8h-7.7V78H8.5
	v-7.2h24C32.5,70.9,32.5,78,32.5,78z M53.3,121.9h-6.9v-4.1c-2.7,3.1-5.3,4.7-7.9,4.7c-2.2,0-3.8-0.9-4.4-2.8
	c-0.4-1.1-0.6-3-0.6-5.6V83.9h6.9v28c0,1.6,0,2.5,0.1,2.7c0.2,1.1,0.7,1.6,1.6,1.6c1.4,0,2.8-1.1,4.4-3.2v-29h6.9L53.3,121.9
	L53.3,121.9z M79.5,110.5c0,3.5-0.2,6-0.7,7.7c-0.9,2.8-2.8,4.3-5.5,4.3c-2.5,0-4.8-1.4-7.1-4.2v3.7h-6.9v-51h6.9v16.7
	c2.2-2.7,4.6-4.1,7.1-4.1c2.7,0,4.6,1.4,5.5,4.3c0.5,1.5,0.7,4,0.7,7.6V110.5L79.5,110.5z M105.5,104.1H91.7v6.7
	c0,3.5,1.1,5.3,3.5,5.3c1.7,0,2.7-0.9,3.1-2.8c0.1-0.4,0.2-1.9,0.2-4.7h7v1c0,2.2-0.1,3.8-0.2,4.4c-0.2,1.5-0.8,2.9-1.6,4.1
	c-1.9,2.8-4.7,4.1-8.3,4.1c-3.6,0-6.3-1.3-8.3-3.9c-1.5-1.9-2.2-4.9-2.2-8.9V96.2c0-4.1,0.7-7,2.1-9c2-2.6,4.7-3.9,8.2-3.9
	c3.5,0,6.2,1.3,8.1,3.9c1.4,1.9,2.1,4.9,2.1,9L105.5,104.1L105.5,104.1z M95.2,89.6c-2.3,0-3.5,1.8-3.5,5.3v3.5h6.9v-3.5
	C98.6,91.4,97.5,89.6,95.2,89.6z M69.6,89.6c2,0,3,1.8,3,5.2V111c0,3.4-1,5.1-3,5.1c-1.1,0-2.3-0.5-3.4-1.7V91.3
	C67.3,90.1,68.5,89.6,69.6,89.6z M73.5,55.1c-2.2,0-3.8-0.9-4.5-2.9c-0.4-1.2-0.6-3-0.6-5.7V16.1h6.9v28.3c0,1.6,0,2.5,0.1,2.7
	c0.1,1.1,0.7,1.6,1.6,1.6c1.4,0,2.9-1.1,4.4-3.3V16.1h7v38.4h-7v-4.2C78.6,53.5,76,55.1,73.5,55.1z M25,33.7
	c-0.7-3.7-2.2-9.1-4.7-16.3c-1.6-4.8-3.3-9.6-5-14.4h8.1l5.5,20.2L34.2,3H42l-9.3,30.7v20.9H25V33.7z M52.4,55.1
	c-3.5,0-6.2-1.3-8.1-3.9c-1.5-1.9-2.2-4.9-2.2-9V28.6c0-4.1,0.7-7.1,2.2-9c1.9-2.6,4.6-3.9,8.1-3.9c3.5,0,6.2,1.3,8.1,3.9
	c1.5,1.9,2.2,4.9,2.2,9v13.5c0,4.1-0.7,7.1-2.2,9C58.6,53.8,55.8,55.1,52.4,55.1L52.4,55.1z M49,27.3v16.2c0,3.6,1.1,5.3,3.3,5.3
	s3.3-1.8,3.3-5.3V27.3c0-3.6-1.1-5.3-3.3-5.3S49,23.7,49,27.3z"/>
</svg>
